# xmcd
#
# Track frame offsets: 
#        150
#        7714
#        26660
#        39065
#        56055
#        74361
#        90300
#
# Disc length: 1406 seconds
#
# Revision: 1
# Processed by: cddbd v1.5.2PL0 Copyright (c) Steve Scherf et al.
# Submitted via: ExactAudioCopyFreeDBPlugin 1.0
#
DISCID=45057c07
DTITLE=Zodiac Mprint - Ride The Stars (The R.O.C. Edition)
DYEAR=2016
DGENRE=Rap
TTITLE0=Nova
TTITLE1=Into The Cosmos
TTITLE2=Ride The Stars
TTITLE3=Keep It Jumpin'
TTITLE4=Beware of The Wolf
TTITLE5=Don't Stand so Close
TTITLE6=What's Yo Sign?
EXTD=
EXTT0=
EXTT1=
EXTT2=
EXTT3=
EXTT4=
EXTT5=
EXTT6=
PLAYORDER=
